<svg aria-hidden="true" style="position: absolute; width: 0; height: 0; overflow: hidden;" version="1.1" xmlns="http://www.w3.org/2000/svg" xmlns:xlink="http://www.w3.org/1999/xlink">
<defs>
<symbol id="gr" viewBox="0 0 35 32">
<path fill="#fff" style="fill: var(--color1, #fff)" d="M12.353 17.514c1.267 0.696 3.265-0.337 4.462-2.306s1.142-4.129-0.125-4.825c-1.267-0.696-3.265 0.337-4.462 2.306s-1.142 4.129 0.125 4.825z"></path>
<path fill="#000" style="fill: var(--color2, #000)" d="M16.593 10.543c1.152 0.633 1.178 2.727 0.055 4.573s-3.045 2.871-4.197 2.238c-1.152-0.633-1.178-2.727-0.055-4.573s3.046-2.871 4.197-2.238zM16.787 10.224c-1.36-0.747-3.476 0.316-4.727 2.373s-1.163 4.33 0.196 5.077c1.36 0.747 3.476-0.316 4.727-2.373s1.165-4.33-0.196-5.077z"></path>
<path fill="#fff" style="fill: var(--color1, #fff)" d="M20.081 21.754c1.267 0.696 3.265-0.337 4.462-2.306s1.142-4.129-0.125-4.825c-1.267-0.696-3.265 0.337-4.462 2.306s-1.142 4.129 0.125 4.825z"></path>
<path fill="#000" style="fill: var(--color2, #000)" d="M24.321 14.783c1.152 0.633 1.178 2.727 0.055 4.573s-3.045 2.871-4.197 2.238c-1.152-0.633-1.178-2.727-0.055-4.573s3.046-2.871 4.197-2.238zM24.515 14.464c-1.36-0.747-3.476 0.316-4.727 2.373s-1.163 4.331 0.196 5.077c1.359 0.747 3.476-0.316 4.727-2.373s1.165-4.33-0.196-5.077z"></path>
<path fill="#000" style="fill: var(--color2, #000)" d="M13.453 15.705c0.711 0.39 1.823-0.175 2.484-1.262s0.621-2.285-0.089-2.676-1.823 0.175-2.484 1.262c-0.661 1.087-0.621 2.285 0.089 2.676z"></path>
<path fill="#000" style="fill: var(--color2, #000)" d="M15.816 11.82c0.679 0.373 0.708 1.535 0.066 2.592s-1.717 1.613-2.396 1.24c-0.679-0.373-0.708-1.535-0.066-2.592s1.718-1.612 2.396-1.24zM15.88 11.714c-0.742-0.407-1.894 0.168-2.573 1.285s-0.629 2.352 0.113 2.76c0.742 0.407 1.894-0.168 2.573-1.285s0.629-2.352-0.113-2.76z"></path>
<path fill="#000" style="fill: var(--color2, #000)" d="M21.181 19.945c0.711 0.39 1.823-0.175 2.484-1.262s0.621-2.285-0.089-2.676c-0.711-0.39-1.823 0.175-2.484 1.262s-0.621 2.285 0.089 2.676z"></path>
<path fill="#000" style="fill: var(--color2, #000)" d="M23.544 16.060c0.679 0.373 0.708 1.535 0.066 2.592s-1.717 1.613-2.396 1.24c-0.679-0.373-0.708-1.535-0.066-2.592s1.718-1.612 2.396-1.24zM23.608 15.954c-0.742-0.407-1.894 0.168-2.573 1.285s-0.629 2.352 0.113 2.76c0.742 0.407 1.894-0.168 2.573-1.285s0.629-2.352-0.113-2.76z"></path>
<path fill="#fff" style="fill: var(--color1, #fff)" d="M14.978 14.2c0.428 0.235 1.035-0.004 1.357-0.533s0.236-1.148-0.192-1.383c-0.428-0.235-1.035 0.004-1.357 0.533s-0.236 1.148 0.192 1.383z"></path>
<path fill="#fff" style="fill: var(--color1, #fff)" d="M22.706 18.44c0.428 0.235 1.035-0.004 1.357-0.533s0.236-1.148-0.192-1.383c-0.428-0.235-1.035 0.004-1.357 0.533s-0.236 1.148 0.192 1.383z"></path>
<path fill="#000" style="fill: var(--color2, #000)" d="M15.614 7.608c1.426 0.096 2.721 0.811 3.522 1.936 0.279 0.391 0.956 0.027 0.676-0.366-0.967-1.359-2.477-2.193-4.201-2.309-0.497-0.034-0.494 0.706 0.003 0.739z"></path>
<path fill="#000" style="fill: var(--color2, #000)" d="M23.678 12.032c1.426 0.096 2.721 0.811 3.522 1.936 0.279 0.391 0.956 0.027 0.676-0.366-0.967-1.359-2.477-2.193-4.201-2.309-0.498-0.034-0.494 0.706 0.003 0.739z"></path>
<path fill="none" stroke="#000" style="stroke: var(--color2, #000)" stroke-linejoin="miter" stroke-linecap="butt" stroke-miterlimit="10" stroke-width="0.4638" d="M13.397 24.401c-5.784-3.173-8.851-8.414-6.851-11.706"></path>
<path fill="none" stroke="#000" style="stroke: var(--color2, #000)" stroke-linejoin="miter" stroke-linecap="butt" stroke-miterlimit="10" stroke-width="0.4638" d="M27.491 24.186c-2 3.292-8.31 3.388-14.093 0.215"></path>
<path fill="none" stroke="#000" style="stroke: var(--color2, #000)" stroke-linejoin="miter" stroke-linecap="butt" stroke-miterlimit="10" stroke-width="0.4638" d="M5.153 12.286l2.917 0.607"></path>
<path fill="none" stroke="#000" style="stroke: var(--color2, #000)" stroke-linejoin="miter" stroke-linecap="butt" stroke-miterlimit="10" stroke-width="0.4638" d="M26.692 23.535l1.663 1.196"></path>
</symbol>
<symbol id="r" viewBox="0 0 34 32">
<path fill="#fff" style="fill: var(--color1, #fff)" d="M12.317 16.245c1.17 0.781 3.208-0.060 4.552-1.878s1.485-3.925 0.315-4.706c-1.17-0.781-3.208 0.060-4.552 1.878s-1.485 3.925-0.315 4.706z"></path>
<path fill="#000" style="fill: var(--color2, #000)" d="M17.075 9.808c1.064 0.71 0.899 2.75-0.361 4.455s-3.223 2.545-4.288 1.834c-1.064-0.711-0.899-2.75 0.361-4.455s3.224-2.544 4.288-1.834zM17.292 9.513c-1.256-0.838-3.412 0.023-4.816 1.922s-1.524 4.119-0.269 4.957c1.256 0.838 3.412-0.023 4.816-1.922s1.525-4.118 0.269-4.957z"></path>
<path fill="#fff" style="fill: var(--color1, #fff)" d="M19.453 21.004c1.17 0.781 3.208-0.060 4.552-1.878s1.485-3.925 0.315-4.706c-1.17-0.781-3.208 0.060-4.552 1.878s-1.485 3.925-0.315 4.706z"></path>
<path fill="#000" style="fill: var(--color2, #000)" d="M24.211 14.568c1.064 0.71 0.899 2.75-0.361 4.455s-3.223 2.545-4.288 1.834c-1.065-0.71-0.899-2.75 0.361-4.455s3.224-2.544 4.288-1.834zM24.429 14.273c-1.256-0.838-3.412 0.023-4.816 1.922s-1.524 4.119-0.269 4.957 3.412-0.022 4.816-1.922c1.404-1.9 1.525-4.118 0.269-4.957z"></path>
<path fill="#000" style="fill: var(--color2, #000)" d="M14.691 13.867c0.656 0.438 1.79-0.021 2.532-1.025s0.812-2.173 0.155-2.611c-0.656-0.438-1.79 0.021-2.532 1.025s-0.812 2.173-0.155 2.611z"></path>
<path fill="#000" style="fill: var(--color2, #000)" d="M17.343 10.28c0.627 0.419 0.551 1.552-0.171 2.528s-1.817 1.429-2.444 1.010-0.551-1.552 0.171-2.528c0.721-0.976 1.818-1.428 2.444-1.010zM17.415 10.182c-0.685-0.457-1.858 0.009-2.62 1.040s-0.825 2.238-0.14 2.695c0.685 0.457 1.858-0.009 2.62-1.040s0.825-2.238 0.14-2.695z"></path>
<path fill="#000" style="fill: var(--color2, #000)" d="M21.931 18.696c0.656 0.438 1.79-0.021 2.532-1.025s0.812-2.173 0.155-2.611c-0.656-0.438-1.79 0.021-2.532 1.025s-0.812 2.173-0.155 2.611z"></path>
<path fill="#000" style="fill: var(--color2, #000)" d="M24.582 15.109c0.627 0.419 0.551 1.552-0.171 2.528s-1.817 1.429-2.444 1.010c-0.627-0.419-0.551-1.552 0.171-2.528s1.818-1.428 2.444-1.010zM24.655 15.011c-0.685-0.457-1.858 0.009-2.62 1.039s-0.825 2.238-0.14 2.695c0.685 0.457 1.858-0.009 2.62-1.040s0.825-2.238 0.14-2.695z"></path>
<path fill="#fff" style="fill: var(--color1, #fff)" d="M14.339 13.412c0.307 0.205 0.784 0.063 1.065-0.317s0.259-0.854-0.048-1.059c-0.307-0.205-0.784-0.063-1.064 0.317s-0.26 0.854 0.048 1.059z"></path>
<path fill="#fff" style="fill: var(--color1, #fff)" d="M21.61 18.408c0.307 0.205 0.784 0.063 1.064-0.317s0.26-0.854-0.047-1.059c-0.307-0.205-0.784-0.063-1.065 0.317s-0.259 0.854 0.048 1.059z"></path>
<path fill="#000" style="fill: var(--color2, #000)" d="M16.142 6.868c1.447 0.049 2.734 0.706 3.587 1.816 0.288 0.375 0.873-0.086 0.587-0.459-0.964-1.256-2.473-2.019-4.109-2.075-0.487-0.016-0.555 0.703-0.065 0.718z"></path>
<path fill="#000" style="fill: var(--color2, #000)" d="M24.553 11.745c1.364 0.467 2.371 1.472 2.828 2.773 0.155 0.44 0.843 0.135 0.69-0.301-0.519-1.478-1.723-2.627-3.262-3.153-0.459-0.156-0.717 0.522-0.256 0.68z"></path>
<path fill="none" stroke="#000" style="stroke: var(--color2, #000)" stroke-linejoin="miter" stroke-linecap="butt" stroke-miterlimit="10" stroke-width="0.4344" d="M12.429 22.993c-5.341-3.562-7.85-8.913-5.605-11.953"></path>
<path fill="none" stroke="#000" style="stroke: var(--color2, #000)" stroke-linejoin="miter" stroke-linecap="butt" stroke-miterlimit="10" stroke-width="0.4344" d="M26.164 23.939c-2.245 3.040-8.394 2.616-13.735-0.946"></path>
<path fill="none" stroke="#000" style="stroke: var(--color2, #000)" stroke-linejoin="miter" stroke-linecap="butt" stroke-miterlimit="10" stroke-width="0.4344" d="M5.505 10.527l2.783 0.83"></path>
<path fill="none" stroke="#000" style="stroke: var(--color2, #000)" stroke-linejoin="miter" stroke-linecap="butt" stroke-miterlimit="10" stroke-width="0.4344" d="M25.445 23.24l1.51 1.3"></path>
<path fill="#000" style="fill: var(--color2, #000); stroke: var(--color2, #000)" stroke="#000" stroke-linejoin="miter" stroke-linecap="butt" stroke-miterlimit="10" stroke-width="0.4344" d="M12.595 23.385c0.463-0.352 0.343-1.225-0.267-1.95s-1.481-1.026-1.944-0.674c-0.463 0.352-0.343 1.225 0.267 1.95s1.481 1.027 1.944 0.674z"></path>
<path fill="#000" style="fill: var(--color2, #000); stroke: var(--color2, #000)" stroke="#000" stroke-linejoin="miter" stroke-linecap="butt" stroke-miterlimit="10" stroke-width="0.4344" d="M12.091 23.868c0.942 0.629 1.788 1.028 1.888 0.892s-0.583-0.755-1.525-1.384c-0.942-0.629-1.788-1.028-1.888-0.892s0.583 0.755 1.525 1.384z"></path>
<path fill="#000" style="fill: var(--color2, #000); stroke: var(--color2, #000)" stroke="#000" stroke-linejoin="miter" stroke-linecap="butt" stroke-miterlimit="10" stroke-width="0.4344" d="M13.63 24.725c0.889 0.384 1.809 0.279 2.055-0.234s-0.277-1.24-1.166-1.624c-0.889-0.384-1.809-0.279-2.055 0.234s0.277 1.24 1.166 1.624z"></path>
</symbol>
<symbol id="y" viewBox="0 0 35 32">
<path fill="#fff" style="fill: var(--color1, #fff)" d="M13.369 21.857c1.491-0.477 2.034-2.742 1.213-5.059s-2.695-3.809-4.185-3.332c-1.491 0.477-2.034 2.742-1.213 5.059s2.695 3.809 4.185 3.332z"></path>
<path fill="#000" style="fill: var(--color2, #000)" d="M10.464 13.653c1.356-0.434 3.151 1.035 3.921 3.208s0.274 4.374-1.082 4.808c-1.356 0.434-3.151-1.035-3.921-3.208s-0.273-4.375 1.082-4.808zM10.331 13.278c-1.6 0.512-2.201 2.889-1.344 5.31s2.85 3.969 4.449 3.457c1.6-0.512 2.201-2.889 1.344-5.31s-2.848-3.969-4.449-3.457z"></path>
<path fill="#fff" style="fill: var(--color1, #fff)" d="M22.462 18.953c1.491-0.477 2.034-2.742 1.213-5.059s-2.694-3.809-4.185-3.332-2.034 2.742-1.213 5.059c0.821 2.317 2.695 3.809 4.185 3.332z"></path>
<path fill="#000" style="fill: var(--color2, #000)" d="M19.557 10.75c1.356-0.434 3.151 1.035 3.921 3.208s0.274 4.374-1.082 4.808-3.151-1.035-3.921-3.208c-0.77-2.173-0.273-4.375 1.082-4.808zM19.424 10.374c-1.6 0.512-2.201 2.889-1.344 5.31s2.85 3.969 4.449 3.457c1.6-0.512 2.201-2.889 1.344-5.31s-2.848-3.969-4.449-3.457z"></path>
<path fill="#000" style="fill: var(--color2, #000)" d="M12.615 19.728c0.836-0.267 1.147-1.522 0.693-2.801s-1.499-2.1-2.335-1.833c-0.836 0.267-1.147 1.522-0.693 2.801s1.499 2.1 2.335 1.833z"></path>
<path fill="#000" style="fill: var(--color2, #000)" d="M10.996 15.156c0.799-0.256 1.806 0.548 2.247 1.791s0.149 2.462-0.65 2.718c-0.799 0.256-1.806-0.548-2.247-1.791s-0.148-2.462 0.65-2.718zM10.952 15.031c-0.873 0.279-1.202 1.571-0.737 2.885s1.55 2.154 2.423 1.874c0.873-0.279 1.202-1.571 0.737-2.885s-1.55-2.154-2.423-1.874z"></path>
<path fill="#000" style="fill: var(--color2, #000)" d="M21.709 16.824c0.836-0.267 1.147-1.522 0.693-2.801s-1.499-2.1-2.335-1.833c-0.836 0.267-1.147 1.522-0.693 2.801s1.499 2.1 2.335 1.833z"></path>
<path fill="#000" style="fill: var(--color2, #000)" d="M20.089 12.253c0.799-0.256 1.806 0.548 2.247 1.791s0.149 2.462-0.65 2.718c-0.799 0.256-1.806-0.548-2.247-1.791s-0.148-2.462 0.65-2.718zM20.045 12.127c-0.873 0.279-1.202 1.571-0.737 2.885s1.55 2.154 2.423 1.874c0.873-0.279 1.202-1.571 0.737-2.885s-1.55-2.154-2.423-1.874z"></path>
<path fill="#fff" style="fill: var(--color1, #fff)" d="M11.191 17.743c0.503-0.161 0.732-0.796 0.512-1.419s-0.807-0.997-1.311-0.836c-0.503 0.161-0.732 0.796-0.512 1.419s0.807 0.997 1.311 0.836z"></path>
<path fill="#fff" style="fill: var(--color1, #fff)" d="M20.196 14.589c0.503-0.161 0.732-0.796 0.512-1.419s-0.807-0.997-1.311-0.836c-0.503 0.161-0.732 0.796-0.512 1.419s0.807 0.997 1.311 0.836z"></path>
<path fill="#000" style="fill: var(--color2, #000)" d="M7.961 11.966c0.221-0.762 0.614-1.546 1.418-1.878 0.749-0.308 1.589-0.115 2.309 0.176 0.493 0.2 0.866-0.511 0.37-0.711-0.959-0.389-2.059-0.604-3.047-0.181-1.040 0.445-1.577 1.433-1.866 2.432-0.143 0.494 0.674 0.652 0.817 0.162z"></path>
<path fill="#000" style="fill: var(--color2, #000)" d="M17.553 8.116c2.092 0.224 4.245-0.049 6.191-0.814 0.493-0.193 0.23-0.949-0.267-0.753-1.806 0.709-3.809 0.997-5.756 0.789-0.531-0.058-0.702 0.72-0.168 0.778z"></path>
<path fill="none" stroke="#000" style="stroke: var(--color2, #000)" stroke-linejoin="miter" stroke-linecap="butt" stroke-miterlimit="10" stroke-width="0.5854" d="M20.568 26.874c-6.805 2.173-13.432 0.795-14.802-3.078"></path>
<path fill="none" stroke="#000" style="stroke: var(--color2, #000)" stroke-linejoin="miter" stroke-linecap="butt" stroke-miterlimit="10" stroke-width="0.5854" d="M30.41 15.926c1.37 3.873-3.037 8.774-9.842 10.947"></path>
<path fill="none" stroke="#000" style="stroke: var(--color2, #000)" stroke-linejoin="miter" stroke-linecap="butt" stroke-miterlimit="10" stroke-width="0.5854" d="M4.427 24.572l2.589-1.803"></path>
<path fill="none" stroke="#000" style="stroke: var(--color2, #000)" stroke-linejoin="miter" stroke-linecap="butt" stroke-miterlimit="10" stroke-width="0.5854" d="M29.289 16.075l2.197-0.423"></path>
</symbol>
<symbol id="arrow-icon" viewBox="0 0 82 32">
<path d="M81.414 17.414c0.781-0.781 0.781-2.047 0-2.828l-12.728-12.728c-0.781-0.781-2.047-0.781-2.828 0s-0.781 2.047 0 2.828l11.314 11.314-11.314 11.314c-0.781 0.781-0.781 2.047 0 2.828s2.047 0.781 2.828 0l12.728-12.728zM0 18h80v-4h-80v4z"></path>
</symbol>
<symbol id="logo-icon" viewBox="0 0 35 32">
<path d="M17.384 14.109c1.632-4.366-1.748-6.756-3.988-8.327-0.428-0.321-0.857-0.621-1.204-0.895-0.62-0.516-1.077-1.196-1.316-1.96s-0.251-1.58-0.033-2.351c0.022-0.081 0.022-0.166-0.002-0.246s-0.069-0.153-0.131-0.209-0.139-0.095-0.222-0.112c-0.083-0.016-0.169-0.010-0.249 0.018-0.754 0.294-1.456 0.706-2.078 1.22-0.597 0.454-1.081 1.037-1.415 1.703s-0.507 1.4-0.509 2.143c-0.422 0.328-0.796 0.713-1.109 1.144-0.576 0.775-0.865 1.722-0.818 2.681-0.686 0.621-1.197 1.407-1.483 2.281s-0.337 1.806-0.149 2.706c-0.273 0.163-0.484 0.409-0.601 0.701s-0.134 0.615-0.047 0.917 0.272 0.569 0.526 0.758c0.255 0.189 0.566 0.29 0.885 0.288h0.030v2.483c0 0.252 0.102 0.494 0.282 0.672s0.426 0.278 0.682 0.278h0.75l1.221 10.43c0.025 0.232 0.137 0.447 0.313 0.603s0.405 0.242 0.642 0.242h5.080c0.237-0 0.466-0.087 0.643-0.242s0.29-0.37 0.317-0.602l1.221-10.43h0.75c0.256 0 0.501-0.1 0.682-0.278s0.282-0.42 0.282-0.672v-2.483h0.030c0.387 0 0.759-0.152 1.033-0.422s0.428-0.636 0.428-1.018c0.002-0.191-0.035-0.38-0.109-0.556s-0.182-0.336-0.32-0.47l-0.013 0.004zM6.388 6.188c0.617 2.284 2.999 3.184 5.17 3.986 0.058 0.035 0.124 0.058 0.192 0.065s0.137 0 0.202-0.021c0.065-0.022 0.124-0.057 0.174-0.104s0.088-0.104 0.113-0.167c0.025-0.063 0.035-0.131 0.030-0.198s-0.025-0.133-0.058-0.192c-0.033-0.059-0.080-0.11-0.135-0.149s-0.12-0.066-0.187-0.078c-2.339-0.874-4.545-1.689-4.712-4.024-0.039-0.642 0.083-1.283 0.356-1.867s0.688-1.093 1.208-1.481c0.326-0.267 0.676-0.505 1.045-0.709-0.024 0.292-0.024 0.586 0 0.878 0.050 0.669 0.235 1.322 0.546 1.919s0.74 1.126 1.262 1.557c0.356 0.3 0.797 0.608 1.285 0.937 1.127 0.798 2.407 1.689 3.221 2.897 0.434 0.619 0.704 1.336 0.786 2.084s-0.028 1.505-0.319 2.201h-1.893c-3.902 0-8.387-1.064-9.274-4.045-0.176-0.613-0.174-1.263 0.004-1.875s0.527-1.164 1.007-1.591l-0.021-0.021zM9.901 20.582l1.431 1.41-1.431 1.41-1.431-1.419 1.431-1.402zM13.182 24.286l-1.182 1.165-1.431-1.41 1.431-1.406 1.242 1.22-0.060 0.431zM9.901 27.52l-1.431-1.41 1.431-1.41 1.431 1.41-1.431 1.41zM9.245 24.049l-1.431 1.41-1.191-1.174-0.051-0.422 1.242-1.22 1.431 1.406zM7.155 26.11l-0.287 0.283-0.073-0.642 0.36 0.359zM7.005 27.554l0.81-0.798 1.572 1.562c0.008 0.032 0.018 0.063 0.030 0.093h-2.313l-0.099-0.857zM11.991 26.756l0.81 0.798-0.099 0.845h-2.378l1.666-1.643zM12.934 26.393l-0.287-0.283 0.364-0.359-0.077 0.642zM13.362 22.702l-0.715-0.718 0.908-0.895-0.193 1.613zM11.987 21.342l-1.358-1.334h2.716l-1.358 1.334zM7.81 21.342l-1.358-1.334h2.716l-1.358 1.334zM12.437 30.362h-5.076c-0.008-0.001-0.015-0.004-0.020-0.010s-0.009-0.012-0.010-0.020l-0.12-1.013h5.38l-0.116 1.013c-0.001 0.008-0.005 0.016-0.011 0.021s-0.014 0.008-0.023 0.008h-0.004zM16.365 15.651h-1.491c-0.065-0.006-0.13 0.001-0.192 0.021s-0.119 0.053-0.167 0.096c-0.048 0.043-0.087 0.096-0.113 0.154s-0.040 0.122-0.040 0.186c0 0.064 0.014 0.128 0.040 0.186s0.065 0.111 0.113 0.154c0.048 0.043 0.105 0.076 0.167 0.096s0.127 0.027 0.192 0.021h0.531v2.483c-0.001 0.008-0.005 0.016-0.011 0.021s-0.014 0.008-0.023 0.008h-10.953c-0.008 0-0.017-0.003-0.023-0.008s-0.010-0.013-0.011-0.021v-2.483h8.486c0.116-0.011 0.223-0.064 0.301-0.149s0.121-0.195 0.121-0.309c0-0.114-0.043-0.225-0.121-0.309s-0.185-0.138-0.301-0.149h-9.424c-0.073 0.006-0.148-0.002-0.217-0.025s-0.134-0.061-0.189-0.11c-0.054-0.049-0.098-0.109-0.128-0.175s-0.045-0.139-0.045-0.211c0-0.073 0.015-0.145 0.045-0.211s0.073-0.126 0.128-0.175c0.054-0.049 0.119-0.086 0.189-0.11s0.144-0.032 0.217-0.025h0.972c0.116-0.011 0.223-0.064 0.301-0.149s0.121-0.195 0.121-0.309c0-0.114-0.043-0.225-0.121-0.309s-0.185-0.138-0.301-0.149h-0.857c-0.123-0.643-0.103-1.304 0.058-1.938s0.46-1.226 0.875-1.736c0.3 0.921 1.071 2.179 2.999 3.18 1.812 0.933 4.211 1.41 7.128 1.41h1.713c0.074-0.006 0.148 0.002 0.217 0.025s0.134 0.061 0.189 0.11c0.054 0.049 0.098 0.109 0.128 0.175s0.045 0.138 0.045 0.211c0 0.073-0.015 0.145-0.045 0.211s-0.073 0.126-0.128 0.175c-0.054 0.049-0.119 0.086-0.189 0.11s-0.144 0.032-0.217 0.025h0.030z"></path>
<path d="M19.859 28.392l-0.342 0.525 0.007 0.004 0.335-0.529zM23.541 28.569l0.626-0.014-0.016-0.725-0.715 0.121 0.105 0.617zM23.584 30.495l0.159 0.606 0.478-0.126-0.011-0.494-0.626 0.014zM18.752 30.587l0.141-0.61-0.004-0.001-0.137 0.611zM16.367 29.523l0.405-0.478-0.001-0.001-0.404 0.478zM15.505 27.566l0.626 0.003v-0.003h-0.626zM15.804 26.196l-0.562-0.276-0 0.001 0.562 0.276zM17.725 24.557l0.222 0.586 0.002-0.001-0.224-0.585zM23.877 24.398l0.624 0.049 0.041-0.529-0.515-0.128-0.151 0.608zM23.724 26.361l-0.117 0.615 0.687 0.13 0.054-0.697-0.624-0.049zM22.054 25.557c-0.94 0-1.73 0.1-2.307 0.354-0.296 0.13-0.565 0.313-0.761 0.571-0.202 0.267-0.298 0.577-0.298 0.905h1.252c0-0.073 0.018-0.114 0.044-0.149 0.032-0.043 0.106-0.111 0.267-0.182 0.336-0.148 0.916-0.248 1.803-0.248v-1.252zM18.688 27.389c0 0.644 0.289 1.176 0.829 1.528l0.684-1.049c-0.186-0.121-0.26-0.258-0.26-0.478h-1.252zM19.524 28.921c0.512 0.324 1.186 0.446 1.944 0.446v-1.253c-0.654 0-1.051-0.111-1.273-0.251l-0.67 1.058zM21.467 29.366c0.743 0 1.469-0.060 2.178-0.18l-0.21-1.235c-0.637 0.108-1.293 0.162-1.968 0.162v1.253zM22.915 28.583l0.043 1.926 1.252-0.028-0.043-1.926-1.252 0.028zM23.424 29.89c-0.716 0.188-1.506 0.285-2.373 0.285v1.252c0.96 0 1.858-0.107 2.691-0.326l-0.319-1.211zM21.052 30.175c-0.885 0-1.601-0.070-2.159-0.198l-0.281 1.221c0.681 0.157 1.498 0.23 2.44 0.23v-1.252zM18.889 29.976c-0.598-0.134-1.029-0.276-1.317-0.416l-0.55 1.125c0.413 0.202 0.952 0.37 1.594 0.513l0.273-1.222zM17.571 29.56c-0.309-0.151-0.574-0.323-0.799-0.514l-0.81 0.955c0.313 0.265 0.667 0.493 1.060 0.685l0.55-1.125zM16.771 29.045c-0.426-0.36-0.644-0.83-0.64-1.476l-1.252-0.006c-0.005 0.985 0.352 1.82 1.084 2.438l0.809-0.957zM16.131 27.566c0-0.421 0.083-0.782 0.236-1.094l-1.125-0.551c-0.246 0.503-0.364 1.055-0.364 1.645h1.252zM16.366 26.472c0.285-0.579 0.788-1.029 1.581-1.33l-0.444-1.171c-1.034 0.392-1.811 1.035-2.26 1.948l1.124 0.553zM17.949 25.142c0.833-0.32 1.763-0.484 2.797-0.484v-1.253c-1.168 0-2.252 0.186-3.246 0.568l0.449 1.169zM20.746 24.657c1.054 0 2.047 0.117 2.981 0.348l0.301-1.216c-1.040-0.258-2.134-0.385-3.282-0.385v1.253zM23.253 24.349l-0.153 1.963 1.249 0.097 0.153-1.963-1.249-0.097zM23.841 25.746c-0.652-0.124-1.248-0.188-1.786-0.188v1.252c0.441 0 0.957 0.053 1.553 0.166l0.233-1.231zM29.951 26.746l-0.003 0.626 0.636 0.004-0.007-0.636-0.626 0.007zM29.682 25.933l-0.426 0.459 0.005 0.005 0.421-0.464zM28.123 25.994l0.434 0.452 0.005-0.004-0.438-0.447zM27.743 26.734l-0.618-0.102-0.119 0.724 0.733 0.004 0.003-0.626zM32.349 30.073l0.378 0.499 0.225-0.171 0.021-0.282-0.624-0.047zM30.997 30.575l-0.135-0.612-0.004 0.001 0.138 0.611zM26.3 30.404l-0.214 0.589 0.005 0.002 0.208-0.59zM25.23 29.835l-0.389 0.491 0.008 0.006 0.381-0.497zM24.514 28.936l-0.561 0.278 0.001 0.003 0.56-0.28zM25.248 25.138l0.416 0.468 0-0-0.417-0.467zM30.973 24.459l0.25-0.574-0.006-0.003-0.245 0.576zM32.41 25.78l-0.563 0.274 0.002 0.003 0.562-0.277zM32.654 26.875l0.625 0.045 0.002-0.023v-0.023h-0.626zM32.581 27.884l-0.003 0.626 0.585 0.003 0.042-0.584-0.625-0.045zM27.621 27.859l0.003-0.626-0.817-0.004 0.208 0.79 0.606-0.16zM28.331 28.734l-0.308 0.545 0.003 0.001 0.306-0.547zM32.134 28.52v-0.626h-0.125l-0.116 0.048 0.241 0.578zM32.465 28.52l0.624 0.047 0.050-0.673h-0.675v0.626zM30.577 26.74c-0.005-0.453-0.109-0.939-0.475-1.271l-0.841 0.928c-0.007-0.007 0.007 0.001 0.025 0.055 0.019 0.057 0.037 0.153 0.039 0.301l1.252-0.013zM30.108 25.474c-0.329-0.305-0.76-0.406-1.184-0.406v1.252c0.244 0 0.318 0.058 0.332 0.071l0.852-0.918zM28.924 25.068c-0.466 0-0.9 0.146-1.239 0.479l0.877 0.895c0.068-0.067 0.169-0.121 0.363-0.121v-1.252zM27.689 25.542c-0.308 0.296-0.494 0.669-0.563 1.090l1.236 0.203c0.029-0.174 0.096-0.294 0.195-0.39l-0.867-0.904zM27.74 27.36l2.208 0.012 0.007-1.253-2.208-0.012-0.007 1.253zM31.97 29.574c-0.137 0.104-0.472 0.249-1.108 0.389l0.269 1.223c0.661-0.145 1.227-0.335 1.595-0.614l-0.757-0.998zM30.859 29.964c-0.607 0.137-1.19 0.205-1.752 0.205v1.252c0.662 0 1.338-0.079 2.028-0.236l-0.277-1.222zM29.107 30.169c-0.59 0-1.076-0.028-1.464-0.080l-0.167 1.241c0.461 0.062 1.006 0.091 1.631 0.091v-1.252zM27.643 30.089c-0.38-0.051-0.758-0.143-1.135-0.276l-0.417 1.181c0.455 0.161 0.917 0.273 1.385 0.336l0.167-1.241zM26.514 29.815c-0.366-0.133-0.664-0.294-0.903-0.477l-0.762 0.994c0.357 0.274 0.772 0.492 1.238 0.661l0.427-1.177zM25.619 29.344c-0.215-0.17-0.398-0.395-0.544-0.688l-1.12 0.56c0.221 0.441 0.515 0.815 0.887 1.11l0.777-0.982zM25.076 28.658c-0.132-0.266-0.21-0.609-0.21-1.050h-1.253c0 0.587 0.105 1.129 0.34 1.605l1.123-0.555zM24.865 27.609c0-0.441 0.079-0.83 0.23-1.176l-1.149-0.499c-0.225 0.518-0.333 1.079-0.333 1.674h1.253zM25.095 26.433c0.158-0.364 0.351-0.633 0.57-0.827l-0.833-0.935c-0.377 0.335-0.669 0.764-0.886 1.264l1.149 0.499zM25.665 25.605c0.673-0.6 1.7-0.948 3.179-0.948v-1.253c-1.66 0-3.031 0.39-4.013 1.266l0.834 0.935zM28.844 24.657c0.664 0 1.29 0.126 1.884 0.378l0.489-1.153c-0.752-0.319-1.544-0.478-2.373-0.478v1.253zM30.722 25.033c0.554 0.242 0.912 0.585 1.124 1.021l1.126-0.548c-0.359-0.738-0.959-1.276-1.75-1.621l-0.501 1.148zM31.848 26.057c0.117 0.237 0.18 0.506 0.18 0.817h1.252c0-0.487-0.1-0.948-0.309-1.372l-1.123 0.555zM32.030 26.829l-0.073 1.009 1.249 0.091 0.073-1.009-1.249-0.091zM32.584 27.258l-4.96-0.024-0.006 1.252 4.96 0.024 0.006-1.252zM27.015 28.019c0.146 0.555 0.505 0.976 1.007 1.26l0.616-1.090c-0.248-0.14-0.363-0.302-0.412-0.489l-1.211 0.319zM28.025 29.281c0.508 0.284 1.143 0.398 1.853 0.398v-1.252c-0.595 0-0.991-0.098-1.242-0.238l-0.611 1.093zM29.878 29.678c0.762 0 1.598-0.206 2.497-0.58l-0.481-1.156c-0.805 0.335-1.473 0.484-2.016 0.484v1.252zM32.134 29.146h0.33v-1.252h-0.33v1.252zM31.84 28.473l-0.116 1.553 1.249 0.093 0.116-1.553-1.249-0.093z"></path>
</symbol>
<symbol id="burger-icon" viewBox="0 0 48 32">
<path d="M0 5.333v-5.333h48v5.333h-48zM0 18.667h48v-5.333h-48v5.333zM0 32h48v-5.333h-48v5.333z"></path>
</symbol>
<symbol id="icon-ice-crema" viewBox="0 0 32 32">
<path d="M16.108 0.107c0.080 0.214 0.241 1.252 0.241 1.573 0 0.797-0.295 1.54-0.837 2.122-0.449 0.482-0.897 0.75-1.975 1.185-1.198 0.489-1.694 0.783-2.256 1.339-0.569 0.569-0.904 1.192-1.024 1.921-0.134 0.797 0 1.359 0.408 1.68l0.208 0.161-0.328 0.208c-0.663 0.435-1.868 1.459-2.075 1.774-0.402 0.603-0.361 1.165 0.094 1.392l0.214 0.107-0.241 0.228c-0.361 0.341-0.435 0.576-0.382 1.192 0.033 0.408 0.020 0.629-0.074 0.964-0.114 0.435-0.114 0.442 0.033 0.75 0.147 0.301 0.562 0.683 0.937 0.843 0.181 0.080 0.187 0.107 0.228 0.723 0.020 0.355 0.053 1.486 0.080 2.517 0.020 1.031 0.067 1.975 0.107 2.089 0.033 0.121 0.161 0.281 0.274 0.361 0.388 0.268 0.656 0.556 0.83 0.89 0.194 0.382 0.408 1.319 1.058 4.559l0.455 2.276 0.281 0.268c0.536 0.529 1.56 0.77 3.247 0.77 1.694 0 2.705-0.234 3.24-0.763l0.288-0.274 0.415-2.109c0.917-4.613 0.997-4.867 1.714-5.436 0.221-0.181 0.435-0.402 0.475-0.502 0.047-0.114 0.094-0.991 0.127-2.316 0.027-1.178 0.067-2.343 0.094-2.591l0.040-0.449 0.435-0.328c0.549-0.422 0.763-0.803 0.763-1.393-0.007-0.696-0.462-1.459-1.292-2.142l-0.395-0.321 0.194-0.274c0.81-1.118 0.301-2.664-1.205-3.695l-0.455-0.315 0.167-0.174c0.743-0.797 0.864-3.173 0.241-4.827-0.375-0.984-1.232-2.055-2.283-2.845-0.515-0.388-1.935-1.245-2.062-1.245-0.027 0-0.027 0.047-0.007 0.107zM18.036 2.443c0.355 0.348 0.783 0.823 0.951 1.064 0.997 1.392 1.252 3.14 0.649 4.425-0.241 0.522-0.964 1.299-1.633 1.761-1.024 0.71-3.327 1.901-4.934 2.557-2.584 1.051-4.084 1.252-4.258 0.562-0.067-0.261 0.127-0.469 0.951-1.018 0.743-0.509 4.077-2.986 4.137-3.086 0.020-0.027-0.321 0.127-0.75 0.341-1.453 0.736-2.142 0.596-2.109-0.428 0.020-0.743 0.556-1.587 1.299-2.069 0.187-0.12 0.77-0.388 1.305-0.603 1.761-0.71 2.296-1.071 2.892-1.962 0.355-0.529 0.743-1.506 0.77-1.921 0.007-0.147 0.034-0.261 0.054-0.261s0.321 0.288 0.676 0.636zM19.864 10.049c0.489 0.274 0.997 0.743 1.218 1.111 0.388 0.663 0.187 1.325-0.649 2.169-0.91 0.924-2.464 1.808-4.171 2.37-1.573 0.515-3.079 0.756-5.235 0.83l-1.339 0.047 0.87 0.054c1.125 0.074 3.3 0.007 4.144-0.127 2.243-0.355 4.151-1.064 5.516-2.042 0.308-0.221 0.629-0.402 0.716-0.402 0.221 0 1.185 0.924 1.379 1.312 0.107 0.221 0.134 0.382 0.114 0.596-0.1 0.89-1.185 1.366-3.802 1.68-3.2 0.382-7.384 0.007-9.172-0.817-0.844-0.388-0.984-0.609-0.77-1.198 0.067-0.187 0.080-0.408 0.054-0.723-0.033-0.415-0.027-0.469 0.12-0.623 0.335-0.361 0.897-0.569 2.959-1.091 0.723-0.187 1.707-0.482 2.176-0.656 1.138-0.415 3.274-1.493 4.264-2.156 0.93-0.616 1.064-0.643 1.607-0.335zM10.974 18.243c1.406 0.408 2.651 0.529 4.967 0.482 1.741-0.034 2.812-0.141 4.358-0.415 0.315-0.053 0.589-0.1 0.623-0.1 0.074 0 0.053 2.571-0.027 3.247-0.087 0.716-0.281 1.272-0.489 1.406-0.214 0.141-1.285 0.288-2.718 0.368-2.939 0.161-5.958 0-6.895-0.375-0.509-0.207-0.562-0.475-0.569-2.959 0-1.654 0.013-1.881 0.1-1.848 0.053 0.020 0.348 0.107 0.649 0.194zM12.56 23.933c0.482 0.060 1.004 0.121 1.165 0.141l0.288 0.034-0.254 0.281c-0.328 0.355-0.83 1.064-1.011 1.426-0.207 0.415-0.274 0.442-0.582 0.274l-0.261-0.147-0.147-0.91c-0.080-0.495-0.167-0.971-0.187-1.051-0.060-0.174-0.12-0.174 0.991-0.047zM19.697 23.859c0 0.013-0.033 0.187-0.067 0.382-0.040 0.201-0.208 1.292-0.375 2.43-0.341 2.377-0.569 3.495-0.777 3.869-0.288 0.502-0.977 0.797-2.095 0.89-0.435 0.034-1.747-0.053-1.821-0.12-0.053-0.060 1.098-1.486 1.279-1.58 0.167-0.094 0.214-0.080 0.783 0.214 0.663 0.348 0.997 0.402 0.997 0.181s-0.174-0.435-0.602-0.73c-0.395-0.281-0.536-0.442-0.536-0.629 0-0.053 0.194-0.355 0.428-0.669s0.576-0.817 0.75-1.118l0.328-0.542 0.301 0.040c0.609 0.087 0.77 0.080 0.75-0.053-0.013-0.067-0.127-0.261-0.254-0.422-0.127-0.167-0.228-0.335-0.228-0.368 0-0.127 0.623-1.299 0.823-1.546 0.174-0.214 0.315-0.321 0.315-0.228zM15.513 24.395c0.335 0.221 1.593 1.312 1.674 1.446 0.034 0.060-1.259 2.082-1.513 2.37-0.027 0.034-0.167-0.033-0.308-0.141-0.141-0.114-0.663-0.475-1.165-0.803l-0.904-0.596 0.542-0.917c0.964-1.613 0.944-1.587 1.151-1.587 0.107 0 0.341 0.1 0.522 0.228zM18.050 24.636c-0.234 0.288-0.428 0.469-0.509 0.469-0.174 0-0.455-0.154-0.93-0.502l-0.395-0.288 0.79-0.047c0.428-0.020 0.844-0.047 0.917-0.060 0.536-0.087 0.536-0.080 0.127 0.428zM12.989 27.856c0.616 0.241 1.66 0.81 1.962 1.064 0.214 0.174 0.214 0.187 0.127 0.402-0.054 0.121-0.234 0.442-0.415 0.716-0.174 0.268-0.375 0.602-0.449 0.743-0.214 0.415-0.281 0.449-0.723 0.328-0.475-0.141-0.73-0.382-0.864-0.817-0.181-0.609-0.469-2.33-0.435-2.598 0.013-0.1 0.295-0.040 0.797 0.161z"></path>
</symbol>
<symbol id="icon-weight" viewBox="0 0 32 32">
<path d="M14.177 0.547c-3.974 0.589-7.247 2.796-8.451 5.685-0.384 0.913-0.488 1.473-0.488 2.573 0.007 0.812 0.037 1.114 0.162 1.552 0.259 0.863 0.443 1.301 0.827 1.919l0.355 0.575-0.399 0.489c-3.154 3.924-3.502 9.444-0.872 13.793 0.982 1.632 2.585 3.234 4.152 4.169l0.465 0.273 12.743-0.108 0.303-0.165c1.056-0.597 2.549-1.926 3.383-3.004 1.256-1.639 2.076-3.551 2.423-5.621 0.118-0.74 0.118-2.932-0.007-3.63-0.377-2.149-1.182-3.989-2.453-5.621-0.244-0.309-0.436-0.568-0.436-0.589 0-0.014 0.133-0.237 0.288-0.489 0.362-0.575 0.687-1.315 0.864-1.962 0.199-0.719 0.199-2.516 0-3.234-0.709-2.552-2.837-4.679-5.843-5.851-0.842-0.331-2.283-0.683-3.213-0.798-0.864-0.101-2.999-0.079-3.804 0.043zM18.676 1.718c3.945 0.769 6.833 3.184 7.365 6.16 0.118 0.668 0.044 1.804-0.155 2.437-0.199 0.618-0.569 1.344-1.005 1.962-0.177 0.252-0.325 0.539-0.325 0.633s0.155 0.338 0.377 0.582c1.847 2.048 2.822 4.614 2.822 7.389-0.007 3.155-1.219 5.922-3.553 8.093-0.399 0.374-0.968 0.841-1.271 1.042l-0.554 0.374-12.211 0.050-0.473-0.302c-1.714-1.114-3.258-2.954-4.115-4.909-1.079-2.472-1.189-5.34-0.31-7.913 0.465-1.337 1.086-2.429 2.031-3.579 0.384-0.46 0.561-0.733 0.561-0.863 0-0.108-0.192-0.46-0.443-0.827-0.886-1.287-1.248-2.717-1.034-4.068 0.222-1.366 0.842-2.487 1.987-3.601 1.492-1.445 3.575-2.401 6.020-2.76 1.012-0.151 3.25-0.093 4.285 0.101z"></path>
<path d="M14.51 2.983c-3.029 0.496-5.4 2.178-6.176 4.384-0.177 0.496-0.207 0.69-0.207 1.402s0.030 0.906 0.207 1.402c0.111 0.316 0.318 0.755 0.458 0.978 0.384 0.618 0.554 0.64 1.315 0.18 1.138-0.697 2.445-1.207 3.804-1.488 0.916-0.187 2.674-0.259 3.671-0.144 1.559 0.18 3.25 0.74 4.602 1.538 0.384 0.223 0.776 0.41 0.872 0.41 0.561 0 1.278-1.617 1.278-2.875 0-2.796-2.674-5.189-6.464-5.786-0.805-0.129-2.585-0.129-3.361 0zM18.166 4.133c1.271 0.273 2.438 0.791 3.317 1.473 1.182 0.913 1.817 2.185 1.714 3.414-0.037 0.489-0.222 1.15-0.332 1.222-0.029 0.014-0.443-0.158-0.916-0.388-0.983-0.474-2.098-0.855-3.228-1.1-0.687-0.144-0.975-0.165-2.512-0.158-1.514 0-1.832 0.022-2.489 0.158-1.138 0.244-2.024 0.546-3.117 1.064-1.101 0.525-1.042 0.532-1.241-0.115-0.258-0.841-0.096-1.955 0.406-2.796 0.266-0.446 0.997-1.186 1.529-1.553 1.012-0.697 1.899-1.013 3.804-1.358 0.391-0.072 2.563 0.029 3.066 0.137z"></path>
<path d="M16.962 13.405c-0.207 0.259-0.207 0.503 0.007 0.712 0.14 0.137 0.281 0.172 0.79 0.208 0.99 0.072 1.935 0.359 2.785 0.848 0.606 0.359 1.529 1.229 1.943 1.854 0.613 0.898 1.034 2.185 1.034 3.134 0 0.331 0.029 0.431 0.185 0.575 0.236 0.237 0.547 0.237 0.776 0 0.163-0.165 0.17-0.208 0.125-0.913-0.207-3.479-3.184-6.383-6.744-6.577l-0.739-0.043-0.163 0.201z"></path>
</symbol>
<symbol id="icon-cow" viewBox="0 0 31 32">
<path d="M6.002 0.778c-0.254 0.219-0.979 1.733-1.24 2.559-0.31 1.024-0.416 1.791-0.373 2.852 0.056 1.514 0.437 2.661 1.275 3.861 0.218 0.314 0.394 0.585 0.394 0.607 0 0.015-0.134 0.029-0.303 0.029-0.726 0-2.085 0.241-3.128 0.556-1.655 0.497-2.627 1.367-2.627 2.34 0 0.344 0.31 0.929 0.641 1.228 0.641 0.578 2.043 1.126 3.55 1.389 0.521 0.095 2.071 0.256 2.416 0.263 0.063 0 0.085 0.336 0.085 1.44 0 0.951 0.035 1.689 0.106 2.142 0.254 1.623 1.043 3.341 2.085 4.555l0.359 0.417-0.24 0.387c-0.352 0.548-0.486 0.965-0.528 1.587-0.106 1.492 0.824 2.815 2.62 3.744 3.423 1.777 8.742 1.082 10.735-1.404 0.972-1.214 1.085-2.603 0.317-3.861l-0.239-0.388 0.43-0.519c0.803-0.965 1.324-1.93 1.719-3.151 0.331-1.038 0.458-2.040 0.458-3.627 0-0.724 0.021-1.323 0.056-1.323 0.324-0.007 1.881-0.175 2.374-0.263 1.515-0.263 2.888-0.804 3.55-1.389 0.331-0.3 0.641-0.885 0.641-1.228 0-1.082-1.099-1.96-3.142-2.486-0.669-0.175-1.93-0.387-2.543-0.424l-0.289-0.022 0.317-0.439c0.394-0.534 0.888-1.572 1.078-2.252 0.535-1.967 0.204-4.255-0.944-6.442-0.479-0.907-0.81-1.119-1.198-0.76-0.148 0.139-0.211 0.329-0.352 1.016-0.437 2.186-1.247 3.919-2.43 5.199l-0.521 0.57h-11.144l-0.465-0.505c-1.155-1.272-1.993-3.071-2.43-5.264-0.141-0.687-0.204-0.877-0.352-1.016-0.232-0.212-0.458-0.205-0.718 0.022zM6.903 5.114c0.373 0.819 0.838 1.587 1.388 2.296l0.437 0.563-0.458 0.344c-0.43 0.329-0.831 0.797-1.141 1.331l-0.134 0.241-0.338-0.461c-1.155-1.594-1.444-3.546-0.831-5.571 0.296-0.98 0.289-0.972 0.556-0.124 0.127 0.409 0.366 1.031 0.521 1.382zM25.239 3.571c0.289 0.87 0.402 1.565 0.402 2.464 0 1.331-0.352 2.457-1.092 3.466l-0.331 0.453-0.247-0.417c-0.289-0.512-0.782-1.046-1.233-1.353-0.19-0.124-0.338-0.249-0.338-0.263 0-0.022 0.134-0.19 0.303-0.373 0.782-0.87 1.62-2.435 2.036-3.78 0.127-0.417 0.254-0.76 0.275-0.76s0.127 0.256 0.225 0.563zM21.64 8.916c0.782 0.329 1.529 1.272 1.648 2.069 0.063 0.439 0.211 0.717 0.402 0.76 0.084 0.015 0.669 0.066 1.296 0.11 2.226 0.146 3.98 0.621 4.727 1.272 0.345 0.307 0.31 0.563-0.106 0.877-0.831 0.629-2.627 1.104-4.459 1.184-1.212 0.051-1.465 0.088-1.627 0.256-0.12 0.124-0.134 0.256-0.134 1.579 0 1.791-0.092 2.822-0.317 3.656-0.317 1.133-0.944 2.34-1.677 3.195l-0.303 0.351-0.627-0.373c-0.761-0.453-1.472-0.746-2.325-0.943-2.67-0.636-5.621-0.249-7.608 1.002l-0.458 0.293-0.289-0.344c-0.394-0.461-1.014-1.448-1.261-2.003-0.542-1.258-0.704-2.281-0.704-4.533 0-2.186 0.113-2.025-1.507-2.113-2.071-0.11-3.649-0.483-4.642-1.111-0.733-0.468-0.613-0.885 0.409-1.375 0.979-0.475 2.325-0.76 4.191-0.877 1.451-0.095 1.486-0.117 1.62-0.819 0.197-1.060 0.979-1.938 1.965-2.215 0.246-0.073 1.627-0.088 5.854-0.080l5.53 0.015 0.401 0.168zM17.681 24.051c1.726 0.424 3.015 1.214 3.571 2.193 0.134 0.227 0.19 0.461 0.218 0.819 0.028 0.446 0.007 0.556-0.162 0.921-0.782 1.66-3.656 2.756-6.579 2.508-3.515-0.293-5.826-2.252-4.917-4.175 0.493-1.038 2.163-2.033 3.924-2.325 0.289-0.044 0.578-0.095 0.634-0.11s0.69-0.015 1.409 0c0.979 0.022 1.451 0.066 1.902 0.168z"></path>
<path d="M10.693 12.579c-0.437 0.146-0.733 0.336-1.127 0.731-0.345 0.329-0.373 0.717-0.085 0.95 0.268 0.219 0.521 0.19 0.845-0.095 0.409-0.358 0.726-0.504 1.12-0.504 0.394-0.007 0.697 0.132 1.12 0.504 0.324 0.285 0.578 0.314 0.845 0.095 0.141-0.117 0.183-0.212 0.183-0.431 0-0.227-0.049-0.329-0.296-0.578-0.697-0.702-1.733-0.972-2.606-0.673z"></path>
<path d="M18.906 12.571c-0.451 0.168-1.029 0.548-1.261 0.833-0.225 0.278-0.232 0.592 0 0.826 0.232 0.249 0.514 0.234 0.852-0.044 0.831-0.687 1.451-0.709 2.219-0.073 0.197 0.168 0.423 0.3 0.493 0.3 0.345 0 0.627-0.307 0.627-0.673 0-0.234-0.585-0.775-1.113-1.031-0.585-0.285-1.282-0.336-1.817-0.139z"></path>
<path d="M11.714 26.106c-0.204 0.197-0.275 0.483-0.169 0.709 0.078 0.183 0.197 0.256 0.683 0.388 0.218 0.058 0.31 0.132 0.387 0.314 0.099 0.241 0.106 0.241 0.648 0.263l0.542 0.022v-0.205c-0.007-0.293-0.169-0.717-0.38-1.009-0.247-0.336-0.676-0.556-1.162-0.6-0.331-0.029-0.416-0.015-0.549 0.117z"></path>
<path d="M18.442 26.054c-0.352 0.095-0.859 0.57-1 0.943-0.063 0.168-0.127 0.468-0.134 0.665-0.014 0.314 0.014 0.388 0.183 0.541 0.416 0.366 0.965 0.080 0.965-0.504 0-0.285 0.211-0.483 0.585-0.556 0.394-0.073 0.535-0.234 0.542-0.607 0-0.49-0.437-0.68-1.141-0.483z"></path>
</symbol>
<symbol id="telegram" viewBox="0 0 40 32"><path fill="#fff" style="fill:var(--color1, #fff)" d="m16.205 20.751-.635 8.339c.909 0 1.302-.364 1.774-.802l4.261-3.801 8.829 6.035c1.619.842 2.76.399 3.197-1.39l5.797-25.346c.514-2.234-.866-3.108-2.443-2.56L2.92 13.398c-2.325.842-2.29 2.052-.395 2.6l8.709 2.528L31.463 6.712c.952-.588 1.818-.263 1.106.326L16.205 20.751z"/></symbol><symbol id="github" viewBox="0 0 32 32"><path fill="#fcfcfc" style="fill:var(--color2, #fcfcfc)" d="M15.999.941C7.728.941.94 7.729.94 16c0 7.058 4.953 13.47 11.529 15.059v-4.982c-.652.143-1.251.147-1.915-.049-.89-.263-1.613-.855-2.15-1.759-.342-.577-.949-1.203-1.581-1.157l-.155-1.758c1.368-.117 2.551.833 3.254 2.014.312.525.671.832 1.132.968.446.131.924.068 1.481-.129.14-1.116.651-1.534 1.037-2.122v-.001c-3.922-.585-5.486-2.666-6.106-4.308-.822-2.181-.381-4.905 1.073-6.627.028-.034.079-.121.059-.183-.667-2.014.146-3.679.176-3.856.769.228.894-.229 3.342 1.258l.423.254c.177.105.121.045.298.032a12.77 12.77 0 0 1 3.16-.445 12.84 12.84 0 0 1 3.204.456l.137.014c-.012-.002.037-.009.12-.058 3.057-1.852 2.947-1.247 3.767-1.513.03.177.831 1.87.172 3.858-.089.274 2.651 2.782 1.132 6.809-.62 1.643-2.183 3.724-6.106 4.309v.001c.503.766 1.107 1.174 1.104 2.755v6.219C26.104 29.47 31.056 23.058 31.056 16c0-8.271-6.788-15.059-15.059-15.059z"/></symbol><symbol id="facebook" viewBox="0 0 16 32"><path fill="#fcfcfc" style="fill:var(--color2, #fcfcfc)" d="M14.266 15.97H10.09v15.39H3.763V15.97H.754v-5.409h3.009v-3.5c0-2.503 1.182-6.422 6.384-6.422l4.687.02v5.25h-3.401c-.558 0-1.342.28-1.342 1.474v3.183h4.729l-.553 5.403z"/></symbol>
<symbol id="icon-close-modal" viewBox="0 0 32 32">
<path d="M18.088 16l12.282-12.281c0.243-0.283 0.369-0.648 0.355-1.021s-0.169-0.727-0.433-0.99c-0.264-0.264-0.617-0.418-0.99-0.433s-0.737 0.112-1.021 0.355l-12.281 12.281-12.281-12.296c-0.279-0.279-0.657-0.436-1.052-0.436s-0.773 0.157-1.052 0.436c-0.279 0.279-0.436 0.657-0.436 1.052s0.157 0.773 0.436 1.052l12.296 12.281-12.296 12.281c-0.155 0.133-0.281 0.296-0.37 0.48s-0.139 0.384-0.147 0.588c-0.008 0.204 0.026 0.408 0.101 0.598s0.187 0.363 0.332 0.507c0.144 0.145 0.317 0.257 0.507 0.332s0.394 0.109 0.598 0.101c0.204-0.008 0.404-0.058 0.588-0.147s0.347-0.215 0.48-0.37l12.296-12.282 12.281 12.282c0.283 0.243 0.648 0.369 1.021 0.355s0.727-0.169 0.99-0.433c0.264-0.264 0.418-0.617 0.433-0.99s-0.112-0.737-0.355-1.021l-12.282-12.281z"></path>
</symbol>
<symbol id="more-icon" viewBox="0 0 19 32">
<path stroke-linejoin="round" stroke-linecap="round" stroke-miterlimit="4" stroke-width="6.4" d="M3.2 3.2l12.8 12.8-12.8 12.8"></path>
</symbol>
<symbol id="icon-Frame-32" viewBox="0 0 32 32">
<path stroke-linejoin="round" stroke-linecap="round" stroke-miterlimit="4" stroke-width="5.3333" d="M10.667 5.333l13.196 10.667-13.196 10.667"></path>
</symbol>
<symbol id="mobile-close-icon" viewBox="0 0 32 32">
<path fill="#fcfcfc" style="fill: var(--color1, #fcfcfc)" d="M28.614 1.13l-12.614 12.614-12.614-12.614c-0.303-0.278-0.702-0.427-1.113-0.418s-0.803 0.176-1.094 0.467c-0.291 0.291-0.458 0.683-0.467 1.094s0.141 0.81 0.418 1.113l12.608 12.614-12.611 12.611c-0.154 0.147-0.277 0.323-0.362 0.518s-0.13 0.405-0.133 0.618 0.037 0.424 0.117 0.621c0.080 0.197 0.199 0.376 0.349 0.527s0.329 0.27 0.526 0.35 0.408 0.121 0.621 0.118c0.213-0.002 0.423-0.047 0.618-0.132s0.372-0.208 0.519-0.361l12.618-12.611 12.614 12.614c0.303 0.278 0.702 0.428 1.113 0.418s0.803-0.176 1.094-0.467c0.291-0.291 0.458-0.683 0.467-1.094s-0.141-0.81-0.418-1.113l-12.614-12.614 12.614-12.618c0.154-0.147 0.277-0.323 0.362-0.518s0.13-0.405 0.133-0.618c0.003-0.213-0.037-0.424-0.117-0.621s-0.199-0.376-0.349-0.527c-0.15-0.151-0.329-0.27-0.526-0.35s-0.408-0.121-0.621-0.118-0.423 0.047-0.618 0.132c-0.195 0.085-0.372 0.208-0.519 0.362v0.003z"></path>
</symbol>
</defs>
</svg>
