<svg aria-hidden="true" style="position: absolute; width: 0; height: 0; overflow: hidden;" version="1.1" xmlns="http://www.w3.org/2000/svg" xmlns:xlink="http://www.w3.org/1999/xlink">
<defs>
<symbol id="icon-ice-cream" viewBox="0 0 32 32">
<path d="M0 0h32v32h-32v-32z"></path>
</symbol>
<symbol id="icon-weight" viewBox="0 0 32 32">
<path d="M0 0h32v32h-32v-32z"></path>
</symbol>
<symbol id="icon-cow" viewBox="0 0 32 32">
<path d="M16 0c8.837 0 16 7.163 16 16s-7.163 16-16 16c-8.837 0-16-7.163-16-16s7.163-16 16-16z"></path>
</symbol>
<symbol id="telegram" viewBox="0 0 40 32"><path fill="#fff" style="fill:var(--color1, #fff)" d="m16.205 20.751-.635 8.339c.909 0 1.302-.364 1.774-.802l4.261-3.801 8.829 6.035c1.619.842 2.76.399 3.197-1.39l5.797-25.346c.514-2.234-.866-3.108-2.443-2.56L2.92 13.398c-2.325.842-2.29 2.052-.395 2.6l8.709 2.528L31.463 6.712c.952-.588 1.818-.263 1.106.326L16.205 20.751z"/></symbol><symbol id="github" viewBox="0 0 32 32"><path fill="#fcfcfc" style="fill:var(--color2, #fcfcfc)" d="M15.999.941C7.728.941.94 7.729.94 16c0 7.058 4.953 13.47 11.529 15.059v-4.982c-.652.143-1.251.147-1.915-.049-.89-.263-1.613-.855-2.15-1.759-.342-.577-.949-1.203-1.581-1.157l-.155-1.758c1.368-.117 2.551.833 3.254 2.014.312.525.671.832 1.132.968.446.131.924.068 1.481-.129.14-1.116.651-1.534 1.037-2.122v-.001c-3.922-.585-5.486-2.666-6.106-4.308-.822-2.181-.381-4.905 1.073-6.627.028-.034.079-.121.059-.183-.667-2.014.146-3.679.176-3.856.769.228.894-.229 3.342 1.258l.423.254c.177.105.121.045.298.032a12.77 12.77 0 0 1 3.16-.445 12.84 12.84 0 0 1 3.204.456l.137.014c-.012-.002.037-.009.12-.058 3.057-1.852 2.947-1.247 3.767-1.513.03.177.831 1.87.172 3.858-.089.274 2.651 2.782 1.132 6.809-.62 1.643-2.183 3.724-6.106 4.309v.001c.503.766 1.107 1.174 1.104 2.755v6.219C26.104 29.47 31.056 23.058 31.056 16c0-8.271-6.788-15.059-15.059-15.059z"/></symbol><symbol id="facebook" viewBox="0 0 16 32"><path fill="#fcfcfc" style="fill:var(--color2, #fcfcfc)" d="M14.266 15.97H10.09v15.39H3.763V15.97H.754v-5.409h3.009v-3.5c0-2.503 1.182-6.422 6.384-6.422l4.687.02v5.25h-3.401c-.558 0-1.342.28-1.342 1.474v3.183h4.729l-.553 5.403z"/></symbol>
<symbol id="icon-close-modal" viewBox="0 0 32 32">
<path d="M18.088 16l12.282-12.281c0.243-0.283 0.369-0.648 0.355-1.021s-0.169-0.727-0.433-0.99c-0.264-0.264-0.617-0.418-0.99-0.433s-0.737 0.112-1.021 0.355l-12.281 12.281-12.281-12.296c-0.279-0.279-0.657-0.436-1.052-0.436s-0.773 0.157-1.052 0.436c-0.279 0.279-0.436 0.657-0.436 1.052s0.157 0.773 0.436 1.052l12.296 12.281-12.296 12.281c-0.155 0.133-0.281 0.296-0.37 0.48s-0.139 0.384-0.147 0.588c-0.008 0.204 0.026 0.408 0.101 0.598s0.187 0.363 0.332 0.507c0.144 0.145 0.317 0.257 0.507 0.332s0.394 0.109 0.598 0.101c0.204-0.008 0.404-0.058 0.588-0.147s0.347-0.215 0.48-0.37l12.296-12.282 12.281 12.282c0.283 0.243 0.648 0.369 1.021 0.355s0.727-0.169 0.99-0.433c0.264-0.264 0.418-0.617 0.433-0.99s-0.112-0.737-0.355-1.021l-12.282-12.281z"></path>
</symbol>
<symbol id="more-icon" viewBox="0 0 19 32">
<path stroke-linejoin="round" stroke-linecap="round" stroke-miterlimit="4" stroke-width="6.4" d="M3.2 3.2l12.8 12.8-12.8 12.8"></path>
</symbol>
<symbol id="icon-Frame-32" viewBox="0 0 32 32">
<path stroke-linejoin="round" stroke-linecap="round" stroke-miterlimit="4" stroke-width="5.3333" d="M10.667 5.333l13.196 10.667-13.196 10.667"></path>
</symbol>
</defs>
</svg>
